<svg xmlns="http://www.w3.org/2000/svg" version="1.1" xmlns:xlink="http://www.w3.org/1999/xlink" xmlns:svgjs="http://svgjs.dev/svgjs" width="100" height="200" viewBox="0 0 2000 2250"><g transform="matrix(1,0,0,1,0,0)"><svg viewBox="0 0 320 360" data-background-color="#ffffff" preserveAspectRatio="xMidYMid meet" height="2250" width="2000" xmlns="http://www.w3.org/2000/svg" xmlns:xlink="http://www.w3.org/1999/xlink"><g id="tight-bounds" transform="matrix(1,0,0,1,0,0)"><svg viewBox="0 0 320 360" height="360" width="320"><g><svg></svg></g><g><svg viewBox="0 0 320 360" height="360" width="320"><g><path xmlns="http://www.w3.org/2000/svg" d="M165.217 303.356c-1.404-1.755-2.809-0.702-2.808-1.755-8.426 2.106-24.223-3.511-30.894-2.809 1.404-2.106-2.106-1.755-2.106-3.159-1.404 2.106-2.809 0-4.915 0.702-2.106-5.266-10.532-1.404-11.585-8.075-4.915 0-6.67-2.809-11.586-5.617 0.351-0.351 0.702-0.351 1.054-0.702-2.457-0.351-2.457-1.755-4.564-1.755l0.702-1.405c-3.862-0.702-5.266-6.67-10.883-8.776-1.755-0.351-5.617-6.319-7.723-7.724-1.053-0.702-2.809-0.702-0.352-1.053-0.351-0.351-0.351-1.053 0-1.404-2.457-0.702-2.809-2.809-5.968-3.862-0.351-1.053 0.702-1.755 0-2.457-0.702-0.351-1.755 0.351-2.457 0-0.351 6.319 6.67 7.021 8.777 12.287-0.702-0.702-1.755-2.809-2.458-1.404-0.351 1.053 2.809 4.915 2.809 2.808-1.053 0.702-1.404-1.053-0.703-1.404 1.053 1.755 3.16 1.404 3.16 2.809-1.053 1.053-2.457-1.053-2.106 0.702 3.16 1.755 2.809 3.511 4.563 5.968-1.404-1.755-1.755 1.404-3.159 0-0.351-5.266-6.319-4.213-6.319-9.479-0.702-1.755-1.404-0.351-2.458-1.053 1.404-1.404-4.213-6.319-4.213-4.564-1.755-2.106-0.702-2.809-1.053-4.213-1.404-0.351-0.351 1.404-1.404 0.351 1.404-2.457-1.755-5.617-3.862-8.074l1.405-0.702c-2.457-1.404-2.809-4.213-4.564-7.373-2.106 3.16 4.213 10.181 3.159 11.585 0 0.351 2.457 3.16 3.16 4.564 2.809 4.915 4.915 10.883 8.777 13.692-0.702-0.351-0.351-2.457 0.702-1.404 0 1.053-0.702 2.106-0.702 3.159 2.106 2.106 3.862 3.862 5.968 5.968-4.564-2.809-9.128-5.617-12.288-9.83 1.755-0.351 3.511 2.809 4.915 2.458-3.511-2.809-2.457-3.862-3.861-7.372-1.404-1.053 0.351 1.404-1.054 1.755-4.564-4.213-8.075-6.67-10.181-10.532 0.351-0.351 0.702-0.702 0.703-1.404-0.351-0.351-0.351-0.351-0.703-0.702 2.106 2.106 2.809 3.862 5.266 4.212-1.053-1.053 0-1.404-1.404-2.457-0.702-1.404-1.755 0.702-2.457-0.351 0.702-1.053 0-2.457 0-3.511-0.702 0-1.404 0-1.756-1.053-0.702-0.351-1.053 0-1.404 0.702-0.351-0.351-0.351-1.053-0.702-1.404v-0.351c-0.351-0.351-0.702-1.053-1.053-1.405-2.809-7.372-4.564-17.202-8.426-23.521 1.053-4.213-0.702-12.638-1.755-14.745 1.053-1.755 0.351-9.83-0.351-11.234-1.755 0.702 0.351 4.564-1.404 5.617-1.755-7.723 1.053-16.5 0.351-23.521 0.702 0 1.404 0 1.404-0.351-1.053-1.053 0.702-3.16 0.351-5.617 1.404-3.16-3.16 4.564-3.16 7.723-0.351 0.702-1.755 0-1.404 1.756 0 2.457 0.702 7.372-0.702 10.883-0.702 0-0.702-0.702-1.404-0.351-0.351 1.755-0.702 3.862-1.053 5.617-0.351-0.702-0.702-1.755-0.703-2.107-1.755-8.777 0-18.958-0.702-26.33 1.404 0 1.404-2.106 2.458-2.808-0.351 2.809-1.053 6.319 0.702 7.021 1.404-13.692 4.213-28.787 10.532-43.532 4.564-10.883 11.234-21.766 19.308-30.543 0.702 1.053-0.351 3.511 0 4.564 7.021-7.372 11.585-16.149 19.309-21.064 0.351 1.755-3.16 3.16-3.16 4.564 3.16-3.16 4.213-2.106 7.724-3.159 1.053-1.404-1.404 0-1.756-1.405 2.106-1.404 3.511-3.16 4.915-4.212 0 0.351-0.351 0.351-0.351 0.702 3.862-1.053 4.213-3.16 7.022-3.862-0.351-0.351-1.053-0.702-2.107-0.351 0.702-0.351 1.755-1.053 2.809-1.404-0.351 0-0.351 0.351-0.702 0.351 2.106-1.053 0.351 0.351 0.351 1.053 0.351 0 0.702-0.351 0.702-0.351-2.106 1.404-3.511 2.106-4.213 4.564 1.053-0.702 1.404 0 2.809-1.054 1.404-0.702-0.351-1.755 0.702-2.457 1.053 0.702 2.457 0.351 3.51 0.351 0-0.702 0.351-1.404 1.054-1.755 0.351-0.702 0-1.053-0.352-1.053 0.351-0.351 0.702-0.351 1.405-0.703 0 0 0.351 0 0.351 0.351 5.968-2.809 12.638-5.266 18.957-7.372 3.862-0.351 8.777-0.351 10.883-2.808-0.702 0-1.404 0.351-1.755 0 0.351 0 1.053-0.351 1.404-0.351 0.702 0.702 1.755 0 0.702 1.404 0.351 0 0.351 0 0.703-0.351 0 0.351 0 0.351 0.351 0.702 0.351 0 0.702-0.351 1.053-1.053 0.351 0 0.702 0 1.053-0.351l-0.351 0.351c2.809-0.702 5.266-0.351 9.128-1.054 0-0.351 0-0.702 0-1.053 0.702 0 1.053-0.351 1.755-0.351v0.351c1.404-0.702 2.809 0.702 2.808 0 0.351 0 0.351 0 0.703 0 0 0.702-0.351 1.053-0.351 1.405 1.755 0 2.809 0 3.51-1.054-0.351-0.351-0.702-0.351-1.053-0.351 0.702 0 1.404-0.351 2.106-0.702 1.053 0.351 1.404 0.702 1.405 2.107 1.755-3.16 7.372 0.702 9.829 0 1.053 0 0.702-1.404 1.405-2.107 0.351 0 0.702 0 1.053 0 1.755 1.404 4.213 2.809 7.372 3.16-2.809-0.702 0.351-1.053 0.702-1.405-0.702 0-0.702-0.351-0.702-0.702 1.053 0 2.106 0.351 3.16 0.351 0 0.702 0.351 1.053 1.053 1.054 0.702 0 0.702-0.351 0.702-1.054 1.053 0 1.755 0 2.809 0.351-0.351 1.404 1.755 1.755 2.457 2.809-2.809-0.702-5.968-1.755-7.021 0 11.234 2.457 23.521 5.968 35.457 11.936 0 0 0 0 0 0.351h0.352c2.106 1.053 4.213 2.106 6.319 3.16 1.404 0.702 2.457 1.404 3.861 2.457 0 0.351 0 0.702 0.703 0.702h0.351c1.404 1.053 2.809 1.755 4.212 2.809 1.404 2.106 2.809 4.915 5.266 4.213 5.266 8.075 10.883 11.234 15.447 19.659 0.351-1.404 1.404 3.16 3.16 3.511-2.809-0.351 1.755 1.755-1.053 1.404 2.457 2.457 3.16 3.511 3.51 6.319-0.702-1.404-1.053-1.755-1.404-0.351-0.351 2.106 2.457-0.351 3.511 1.756-2.106 0-1.404 1.404-1.054 3.159 1.053-1.053 0.702-2.106 1.756-1.755 1.404 1.404-0.702 1.755-0.351 2.809 1.053-1.404 1.404-0.702 2.808 0-1.755 0.351 1.053 2.809-1.053 1.755 1.404 1.755 1.755 2.809 1.053 4.564-1.404-2.106-0.351-3.511-2.457-3.16 4.213 3.511 2.106 11.585 7.021 12.287-3.16 0.702 0 2.106-1.755 2.458 2.106 0.702 1.053 3.511 3.51 4.213-0.351 1.755-1.053 2.809-1.404 4.563 1.053 1.404 1.404 4.213 3.16 4.564-1.053 1.053-0.351 3.862-1.404 4.915 1.404-0.702 2.106-0.702 3.159 0.702-1.755 1.404-0.351 2.809-1.404 3.16 3.16 8.075-0.702 24.575 1.053 30.894-2.106-1.053-1.404 2.457-2.808 2.457 2.457 1.053 0.351 2.809 1.404 4.564-4.915 2.809 0 10.532-6.67 12.287 0.702 4.915-2.106 7.021-4.213 12.288-0.351-0.351-0.351-0.702-0.702-1.054-0.351 2.457-1.755 2.809-1.054 4.915l-1.404-0.702c0 3.862-5.968 5.968-7.372 11.936-0.351 1.755-5.617 6.319-7.022 8.777-0.702 1.053-0.351 2.809-1.053 0.351-0.351 0.351-1.053 0.351-1.404 0.351-0.351 2.457-2.457 3.16-3.16 6.319-0.702 0.351-1.755-0.702-2.457 0.351 0 0.702 0.702 1.755 0.351 2.458 6.319-0.351 6.319-7.723 11.234-10.181-0.351 1.053-2.457 2.106-1.053 2.808 1.053 0 4.213-3.511 2.457-3.159 1.053 0.702-1.053 1.404-1.404 1.053 1.755-1.404 1.053-3.16 2.458-3.511 1.053 0.702-1.053 2.457 1.053 2.107 1.404-3.16 3.16-3.511 5.266-5.266-1.404 1.404 1.755 1.755 0.351 3.159-5.266 1.053-3.511 7.021-8.777 7.724-1.404 1.053-0.351 1.404-0.702 2.457-1.755-1.053-5.617 4.915-4.213 4.564-1.755 1.755-2.809 1.053-4.212 1.404-0.351 1.404 1.404 0.351 0.702 1.405-2.457-1.053-5.617 2.457-7.724 4.915l-1.053-1.054c-1.053 2.809-3.862 3.16-7.021 5.266 3.511 1.755 9.479-5.617 11.234-4.564 0.351 0 3.16-2.809 4.213-3.861 4.564-3.511 10.181-6.319 12.287-10.181-0.351 0.702-2.457 0.702-1.404-0.351 1.053-0.351 2.106 0.351 3.159 0.351 5.617-7.723 12.638-14.043 17.905-23.17 0.351-0.351 0.702-1.053 1.053-1.756-0.702 2.106-1.755 3.862-2.458 5.968-5.617 3.862-7.723 15.096-14.393 16.851 0.351 3.862-3.16 4.915-4.915 9.479-1.053 1.404-1.755-1.053-2.809 0.702 1.053 4.915-8.777 4.564-8.425 9.128-0.702 0.351-1.755 0.702-2.458 1.404h-0.351c-0.351 0.351-0.351 0.351-0.702 0.702-1.755 1.053-3.16 2.106-4.564 3.16-4.915 2.809-11.585 4.915-16.851 7.723v-0.351c-1.404 0.702-3.16 0.351-2.809 1.756-1.053 0.702-2.106 1.404-3.159 2.106-0.351 0-0.351 0-0.702 0 0 0-0.351-0.351-0.702-0.351-0.702 0-0.702 0-1.054 0.351-4.564 0.351-10.532 2.457-12.287 3.862-1.755-1.053-9.83 0.702-11.234 1.404 0.702 1.053 2.809 0 4.564 0-1.053 0.351-2.106 0.702-2.458 1.404-0.351 0-0.351 0-0.702 0-0.351-1.053-1.404 0-1.755-0.351h0.351c-0.351-1.404-1.404-2.106-3.16-1.755 0 0.702 0 1.053-0.351 1.755 0.702 0 2.809-1.053 2.809 0-0.351 0-0.351 0.351 0 0.351-0.702 0.702-1.755 0.702-2.458 1.054-1.404 0-3.16 0-4.563 0-0.351-0.351-0.702-0.351-1.405-0.703-0.351 0.351-1.053 0.351-1.404 0.703-2.106 0-4.564 0.351-6.319 0.702 0-0.702 0-1.404-0.702-1.405-1.053 1.404-3.16-0.351-5.617 0.352-2.457-0.702 1.404 1.053 4.915 1.755-0.351 0.351-0.702 0.702-1.756 1.053M116.068 308.271c-4.915-4.564-15.096-6.67-16.851-10.181-2.809-0.351-7.021-5.617-10.532-6.319 1.755 0 0.351-1.053 0-1.755-0.702 0.702-1.404 1.053-2.106 1.053 0-2.809-2.809-4.564-5.266-6.319 1.755 1.053 3.16 1.755 5.266 2.106 0-0.702 0-1.404 0.702-1.404 2.457 2.457 5.266 4.915 8.425 7.372 4.213 3.862 25.979 13.692 29.841 15.447 0 0-0.702 1.404-0.351 1.404 1.755 1.053 3.16-1.053 3.511 1.404-5.617 0.702-7.723-3.16-12.639-2.808M277.909 226.824v0.351 0c-0.351 0 0-0.351 0-0.351M136.079 64.281c-0.351 0.351-0.702 0.351-0.702 0.351 0-0.351 0.351-0.351 0.702-0.351M129.409 66.036c0 0.351 0 0.351 0 0 0 0.351 0 0.351 0 0 0 0.351 0 0 0 0M106.238 73.408v0c0.351-0.351 0.351-0.351 0.703-0.351-0.351 0-0.702 0.351-0.703 0.351M162.409 61.823c-0.702 0-1.053 0-1.404-0.351 0.351 0 0.702 0 1.053 0h0.351c0 0 0 0 0 0.351M168.728 62.525c-0.351-0.351-1.404-0.702-2.457-0.702 0-0.351 0.351-0.702 0.351-0.702 0.351 0 0.702 0 1.053 0 0 0 0.351 0 0.351 0.351 0 0 0 0 0-0.351 0.351 0 0.351 0 0.702 0 0.351 0.702 0.702 1.053 0 1.404M180.313 63.579c-1.755 0.351-2.809-0.351-4.564-1.405 1.053 0 2.457 0.351 3.511 0.702 0.351 0 0.702 0.351 1.053 0.703M305.292 113.43c-0.702 0.351-1.053 0.351-1.755-1.053-5.617-11.936-15.798-29.138-30.543-43.532-14.394-14.745-33.702-26.681-51.255-33.001 1.053 0.351 2.457 1.053 1.755 1.756-15.447-5.968-30.192-9.479-44.234-10.883-37.915-5.968-77.585 2.106-108.128 21.766 0.351 0.702 0.351 1.053-0.702 1.755-11.234 7.021-27.032 19.309-39.671 35.458-12.638 16.149-22.468 36.511-26.681 54.766 0.351-1.053 0.702-2.809 1.405-2.107-9.128 36.16-6.67 67.053 5.968 93.735 0.702-0.702-1.755-4.213 0.351-3.862 1.404 3.862 3.16 8.075 5.266 11.936 2.457 5.617 5.266 12.989 9.128 14.745-9.83-19.309-16.5-41.426-17.203-61.085 1.404 2.809 1.053 8.777 3.16 11.234 0.702-13.34-2.457-31.245 2.106-43.883-1.053 6.67-1.755 15.798-1.053 24.925 0 6.67 3.16 25.277 5.266 27.032-0.351-0.351-0.351-2.106 0-2.106 1.053 2.106-1.404 3.16 0.351 3.511 0-0.702 0.351-0.702 0.702-0.703 3.511 7.723 8.075 19.66 11.585 25.628 4.213 7.723 9.83 14.745 16.149 21.064 0 0.351 0.351 0.351 0.352 0.702 0.702 1.755 3.16 3.862 3.861 5.266 0.351 0.702-0.351 1.755 0 2.458 5.266 9.83 12.989 19.66 22.468 27.383 5.968 7.021 15.447 14.394 27.032 20.713 11.234 5.968 24.223 10.883 36.16 13.691 8.426 2.106 18.606 2.457 24.926 3.862 8.426 1.755 23.17-0.702 30.542-2.107 44.234-6.67 88.117-36.862 110.235-80.393 22.819-43.883 22.117-97.596 2.457-138.671" fill="#ff5858" fill-rule="nonzero" stroke="none" stroke-width="1" stroke-linecap="butt" stroke-linejoin="miter" stroke-miterlimit="10" stroke-dasharray="" stroke-dashoffset="0" font-family="none" font-weight="none" font-size="none" text-anchor="none" style="mix-blend-mode: normal" data-fill-palette-color="tertiary"></path></g><g transform="matrix(1,0,0,1,80,165.24184476940383)"><svg viewBox="0 0 160 29.51631046119235" height="29.51631046119235" width="160"><g><svg viewBox="0 0 160 29.51631046119235" height="29.51631046119235" width="160"><g><svg viewBox="0 0 160 29.51631046119235" height="29.51631046119235" width="160"><g><svg viewBox="0 0 160 29.51631046119235" height="29.51631046119235" width="160"><g id="textblocktransform"><svg viewBox="0 0 160 29.51631046119235" height="29.51631046119235" width="160" id="textblock"><g><svg viewBox="0 0 160 29.51631046119235" height="29.51631046119235" width="160"><g transform="matrix(1,0,0,1,0,0)"><svg width="160" viewBox="2.8600001335144043 -36.040000915527344 195.3199920654297 36.040000915527344" height="29.51631046119235" data-palette-color="#ff5858"><path d="M14.26-32.4L33.96 0 22.49 0 2.86-32.4 14.26-32.4ZM12.26 0L2.86 0 2.86-29.32 12.26-13.92 12.26 0ZM24.56-32.4L33.96-32.4 33.96-3.08 24.56-18.55 24.56-32.4ZM66.99 0L56.44 0 56.44-19.46 41.09-19.46 41.09-22.68 44.33-25.93 60.52-25.93 66.99-19.46 66.99 0ZM43.26-15.09L54.73-15.09 54.73-10.6 49.17-10.6 49.17-6.05 54.73-6.05 54.73-3.2 51.51 0 43.26 0 38.91-4.27 38.91-10.77 43.26-15.09ZM82.73 0L71.85 0 71.85-25.93 82.73-25.93 82.73 0ZM89.13 0L89.13-19.46 84.49-19.46 84.49-22.29 88.11-25.93 94.11-25.93 99.95-20.09 99.95 0 89.13 0ZM122.43-35.82L133.22-35.82 133.22 0 122.43 0 122.43-35.82ZM115.52-19.46L115.52-6.05 120.72-6.05 120.72-2.56 118.16 0 110.56 0 104.73-5.83 104.73-20.09 110.56-25.93 120.72-25.93 120.72-19.46 115.52-19.46ZM138.32 0L138.32-25.93 149.14-25.93 149.14 0 138.32 0ZM138.32-29.15L138.32-36.04 149.14-36.04 149.14-29.15 138.32-29.15ZM165.12 0L154.24 0 154.24-25.93 165.12-25.93 165.12 0ZM171.52 0L171.52-19.46 166.88-19.46 166.88-22.29 170.5-25.93 176.5-25.93 182.34-20.09 182.34 0 171.52 0ZM187.36 0L187.36-25.93 198.18-25.93 198.18 0 187.36 0ZM187.36-29.15L187.36-36.04 198.18-36.04 198.18-29.15 187.36-29.15Z" opacity="1" transform="matrix(1,0,0,1,0,0)" fill="#ff5858" class="wordmark-text-0" data-fill-palette-color="primary" id="text-0"></path></svg></g></svg></g></svg></g></svg></g><g></g></svg></g></svg></g></svg></g></svg></g><defs></defs></svg><rect width="320" height="360" fill="none" stroke="none" visibility="hidden"></rect></g></svg></g></svg>